<svg width="1280" height="720" xmlns="http://www.w3.org/2000/svg" xmlns:xlink="http://www.w3.org/1999/xlink" overflow="hidden"><defs><clipPath id="clip0"><path d="M0 0 1280 0 1280 720 0 720Z" fill-rule="evenodd" clip-rule="evenodd"/></clipPath><clipPath id="clip1"><path d="M133 602 229 602 229 698 133 698Z" fill-rule="evenodd" clip-rule="evenodd"/></clipPath><clipPath id="clip2"><path d="M133 602 229 602 229 698 133 698Z" fill-rule="evenodd" clip-rule="evenodd"/></clipPath><clipPath id="clip3"><path d="M133 602 229 602 229 698 133 698Z" fill-rule="evenodd" clip-rule="evenodd"/></clipPath><linearGradient x1="74.0001" y1="199.5" x2="74.0001" y2="234.5" gradientUnits="userSpaceOnUse" spreadMethod="reflect" id="fill4"><stop offset="0" stop-color="#D2D2D2"/><stop offset="0.5" stop-color="#C8C8C8"/><stop offset="1" stop-color="#C0C0C0"/></linearGradient><linearGradient x1="598.5" y1="268.5" x2="598.5" y2="326.5" gradientUnits="userSpaceOnUse" spreadMethod="reflect" id="fill5"><stop offset="0" stop-color="#F7BDA4"/><stop offset="0.5" stop-color="#F5B195"/><stop offset="1" stop-color="#F8A581"/></linearGradient><linearGradient x1="919.5" y1="470.5" x2="919.5" y2="529.5" gradientUnits="userSpaceOnUse" spreadMethod="reflect" id="fill6"><stop offset="0" stop-color="#F7BDA4"/><stop offset="0.5" stop-color="#F5B195"/><stop offset="1" stop-color="#F8A581"/></linearGradient><linearGradient x1="280.477" y1="250.687" x2="280.477" y2="308.715" gradientUnits="userSpaceOnUse" spreadMethod="reflect" id="fill7"><stop offset="0" stop-color="#FFDD9C"/><stop offset="0.5" stop-color="#FFD78E"/><stop offset="1" stop-color="#FFD479"/></linearGradient><linearGradient x1="74.0001" y1="91.5001" x2="74.0001" y2="163.5" gradientUnits="userSpaceOnUse" spreadMethod="reflect" id="fill8"><stop offset="0" stop-color="#A9D18E"/><stop offset="0.00675676" stop-color="#AAD18F"/><stop offset="0.0135135" stop-color="#ABD291"/><stop offset="0.0202703" stop-color="#ADD393"/><stop offset="0.027027" stop-color="#AED495"/><stop offset="0.0337838" stop-color="#B0D497"/><stop offset="0.0405405" stop-color="#B1D598"/><stop offset="0.0472973" stop-color="#B2D69A"/><stop offset="0.0540541" stop-color="#B4D69C"/><stop offset="0.0608108" stop-color="#B5D79E"/><stop offset="0.0675676" stop-color="#B6D89F"/><stop offset="0.0743243" stop-color="#B7D9A1"/><stop offset="0.0810811" stop-color="#B9D9A3"/><stop offset="0.0878378" stop-color="#BADAA4"/><stop offset="0.0945946" stop-color="#BBDBA6"/><stop offset="0.101351" stop-color="#BCDBA7"/><stop offset="0.108108" stop-color="#BDDCA9"/><stop offset="0.114865" stop-color="#BFDCAB"/><stop offset="0.121622" stop-color="#C0DDAC"/><stop offset="0.128378" stop-color="#C1DEAE"/><stop offset="0.135135" stop-color="#C2DEAF"/><stop offset="0.141892" stop-color="#C3DFB0"/><stop offset="0.148649" stop-color="#C4E0B2"/><stop offset="0.155405" stop-color="#C5E0B3"/><stop offset="0.162162" stop-color="#C6E1B5"/><stop offset="0.168919" stop-color="#C7E1B6"/><stop offset="0.175676" stop-color="#C8E2B7"/><stop offset="0.182432" stop-color="#C9E2B8"/><stop offset="0.189189" stop-color="#CAE3BA"/><stop offset="0.195946" stop-color="#CBE3BB"/><stop offset="0.202703" stop-color="#CCE4BC"/><stop offset="0.209459" stop-color="#CDE4BD"/><stop offset="0.216216" stop-color="#CEE5BF"/><stop offset="0.222973" stop-color="#CFE5C0"/><stop offset="0.22973" stop-color="#D0E6C1"/><stop offset="0.236486" stop-color="#D0E6C2"/><stop offset="0.243243" stop-color="#D1E7C3"/><stop offset="0.25" stop-color="#D2E7C4"/><stop offset="0.256757" stop-color="#D3E7C5"/><stop offset="0.263514" stop-color="#D3E8C6"/><stop offset="0.27027" stop-color="#D4E8C7"/><stop offset="0.277027" stop-color="#D5E9C8"/><stop offset="0.283784" stop-color="#D6E9C9"/><stop offset="0.290541" stop-color="#D6E9CA"/><stop offset="0.297297" stop-color="#D7EACB"/><stop offset="0.304054" stop-color="#D8EACC"/><stop offset="0.310811" stop-color="#D8EACC"/><stop offset="0.317568" stop-color="#D9EBCD"/><stop offset="0.324324" stop-color="#D9EBCE"/><stop offset="0.331081" stop-color="#DAEBCF"/><stop offset="0.337838" stop-color="#DBECCF"/><stop offset="0.344595" stop-color="#DBECD0"/><stop offset="0.351351" stop-color="#DCECD1"/><stop offset="0.358108" stop-color="#DCEDD1"/><stop offset="0.364865" stop-color="#DDEDD2"/><stop offset="0.371622" stop-color="#DDEDD3"/><stop offset="0.378378" stop-color="#DDEDD3"/><stop offset="0.385135" stop-color="#DEEED4"/><stop offset="0.391892" stop-color="#DEEED4"/><stop offset="0.398649" stop-color="#DFEED5"/><stop offset="0.405405" stop-color="#DFEED5"/><stop offset="0.412162" stop-color="#DFEED6"/><stop offset="0.418919" stop-color="#E0EED6"/><stop offset="0.425676" stop-color="#E0EFD6"/><stop offset="0.432432" stop-color="#E0EFD7"/><stop offset="0.439189" stop-color="#E0EFD7"/><stop offset="0.445946" stop-color="#E1EFD7"/><stop offset="0.452703" stop-color="#E1EFD8"/><stop offset="0.459459" stop-color="#E1EFD8"/><stop offset="0.466216" stop-color="#E1EFD8"/><stop offset="0.472973" stop-color="#E1EFD8"/><stop offset="0.47973" stop-color="#E1EFD8"/><stop offset="0.486486" stop-color="#E1EFD8"/><stop offset="0.493243" stop-color="#E1EFD8"/><stop offset="0.5" stop-color="#E2F0D9"/><stop offset="0.506757" stop-color="#E1EFD8"/><stop offset="0.513514" stop-color="#E1EFD8"/><stop offset="0.52027" stop-color="#E1EFD8"/><stop offset="0.527027" stop-color="#E1EFD8"/><stop offset="0.533784" stop-color="#E1EFD8"/><stop offset="0.540541" stop-color="#E1EFD8"/><stop offset="0.547297" stop-color="#E1EFD8"/><stop offset="0.554054" stop-color="#E1EFD7"/><stop offset="0.560811" stop-color="#E0EFD7"/><stop offset="0.567568" stop-color="#E0EFD7"/><stop offset="0.574324" stop-color="#E0EFD6"/><stop offset="0.581081" stop-color="#E0EED6"/><stop offset="0.587838" stop-color="#DFEED6"/><stop offset="0.594595" stop-color="#DFEED5"/><stop offset="0.601351" stop-color="#DFEED5"/><stop offset="0.608108" stop-color="#DEEED4"/><stop offset="0.614865" stop-color="#DEEED4"/><stop offset="0.621622" stop-color="#DDEDD3"/><stop offset="0.628378" stop-color="#DDEDD3"/><stop offset="0.635135" stop-color="#DDEDD2"/><stop offset="0.641892" stop-color="#DCEDD1"/><stop offset="0.648649" stop-color="#DCECD1"/><stop offset="0.655405" stop-color="#DBECD0"/><stop offset="0.662162" stop-color="#DBECCF"/><stop offset="0.668919" stop-color="#DAEBCF"/><stop offset="0.675676" stop-color="#D9EBCE"/><stop offset="0.682432" stop-color="#D9EBCD"/><stop offset="0.689189" stop-color="#D8EACC"/><stop offset="0.695946" stop-color="#D8EACC"/><stop offset="0.702703" stop-color="#D7EACB"/><stop offset="0.709459" stop-color="#D6E9CA"/><stop offset="0.716216" stop-color="#D6E9C9"/><stop offset="0.722973" stop-color="#D5E9C8"/><stop offset="0.72973" stop-color="#D4E8C7"/><stop offset="0.736486" stop-color="#D3E8C6"/><stop offset="0.743243" stop-color="#D3E7C5"/><stop offset="0.75" stop-color="#D2E7C4"/><stop offset="0.756757" stop-color="#D1E7C3"/><stop offset="0.763514" stop-color="#D0E6C2"/><stop offset="0.77027" stop-color="#D0E6C1"/><stop offset="0.777027" stop-color="#CFE5C0"/><stop offset="0.783784" stop-color="#CEE5BF"/><stop offset="0.790541" stop-color="#CDE4BD"/><stop offset="0.797297" stop-color="#CCE4BC"/><stop offset="0.804054" stop-color="#CBE3BB"/><stop offset="0.810811" stop-color="#CAE3BA"/><stop offset="0.817568" stop-color="#C9E2B8"/><stop offset="0.824324" stop-color="#C8E2B7"/><stop offset="0.831081" stop-color="#C7E1B6"/><stop offset="0.837838" stop-color="#C6E1B5"/><stop offset="0.844595" stop-color="#C5E0B3"/><stop offset="0.851351" stop-color="#C4E0B2"/><stop offset="0.858108" stop-color="#C3DFB0"/><stop offset="0.864865" stop-color="#C2DEAF"/><stop offset="0.871622" stop-color="#C1DEAE"/><stop offset="0.878378" stop-color="#C0DDAC"/><stop offset="0.885135" stop-color="#BFDCAB"/><stop offset="0.891892" stop-color="#BDDCA9"/><stop offset="0.898649" stop-color="#BCDBA7"/><stop offset="0.905405" stop-color="#BBDBA6"/><stop offset="0.912162" stop-color="#BADAA4"/><stop offset="0.918919" stop-color="#B9D9A3"/><stop offset="0.925676" stop-color="#B7D9A1"/><stop offset="0.932432" stop-color="#B6D89F"/><stop offset="0.939189" stop-color="#B5D79E"/><stop offset="0.945946" stop-color="#B4D69C"/><stop offset="0.952703" stop-color="#B2D69A"/><stop offset="0.959459" stop-color="#B1D598"/><stop offset="0.966216" stop-color="#B0D497"/><stop offset="0.972973" stop-color="#AED495"/><stop offset="0.97973" stop-color="#ADD393"/><stop offset="0.986486" stop-color="#ABD291"/><stop offset="0.993243" stop-color="#AAD18F"/><stop offset="1" stop-color="#A9D18E"/></linearGradient><clipPath id="clip9"><path d="M56 86 91 86 91 122 56 122Z" fill-rule="evenodd" clip-rule="evenodd"/></clipPath><clipPath id="clip10"><path d="M56 86 91 86 91 122 56 122Z" fill-rule="evenodd" clip-rule="evenodd"/></clipPath><clipPath id="clip11"><path d="M56 86 91 86 91 122 56 122Z" fill-rule="evenodd" clip-rule="evenodd"/></clipPath><clipPath id="clip12"><path d="M155 624 207 624 207 676 155 676Z" fill-rule="evenodd" clip-rule="evenodd"/></clipPath><clipPath id="clip13"><path d="M155 624 207 624 207 676 155 676Z" fill-rule="evenodd" clip-rule="evenodd"/></clipPath><clipPath id="clip14"><path d="M155 624 207 624 207 676 155 676Z" fill-rule="evenodd" clip-rule="evenodd"/></clipPath></defs><g clip-path="url(#clip0)"><rect x="0" y="0" width="1280" height="720" fill="#FFFFFF"/><g clip-path="url(#clip1)"><g clip-path="url(#clip2)"><g clip-path="url(#clip3)"><path d="M215 672 147 672 147 628 215 628 215 672ZM186 676 176 676C175.4 676 175 675.6 175 675 175 674.4 175.4 674 176 674L186 674C186.6 674 187 674.4 187 675 187 675.6 186.6 676 186 676ZM181 624C181.6 624 182 624.4 182 625 182 625.6 181.6 626 181 626 180.4 626 180 625.6 180 625 180 624.4 180.4 624 181 624ZM217 622 145 622C142.8 622 141 623.8 141 626L141 674C141 676.2 142.8 678 145 678L217 678C219.2 678 221 676.2 221 674L221 626C221 623.8 219.2 622 217 622Z"/></g></g></g><path d="M491.5 182.488 508.488 165.5 570.512 165.5 587.5 182.488 587.5 206.512 570.512 223.5 508.488 223.5 491.5 206.512Z" stroke="#BDD7EE" stroke-miterlimit="8" fill="#9DC3E6" fill-rule="evenodd"/><text font-family="Calibri,Calibri_MSFontService,sans-serif" font-weight="400" font-size="16" transform="translate(513.148 199)">Denkovi</text><path d="M813.5 591.488 830.488 574.5 888.512 574.5 905.5 591.488 905.5 615.512 888.512 632.5 830.488 632.5 813.5 615.512Z" stroke="#BDD7EE" stroke-miterlimit="8" fill="#9DC3E6" fill-rule="evenodd"/><text font-family="Calibri,Calibri_MSFontService,sans-serif" font-weight="400" font-size="16" transform="translate(833.033 608)">Denkovi</text><path d="M351 28 351 698.238" stroke="#4472C4" stroke-width="8" stroke-miterlimit="8" stroke-dasharray="24 8" fill="none" fill-rule="evenodd"/><path d="M749 25 749 695.238" stroke="#4472C4" stroke-width="8" stroke-miterlimit="8" stroke-dasharray="24 8" fill="none" fill-rule="evenodd"/><text font-family="Calibri,Calibri_MSFontService,sans-serif" font-weight="700" font-size="24" transform="translate(117.256 52)">Meterkast<tspan x="385.38" y="0">Garage</tspan><tspan x="845.717" y="0">Waskamer</tspan></text><rect x="20.5001" y="272.5" width="92" height="166" stroke="#000000" stroke-miterlimit="8" fill="#F2F2F2"/><text font-family="Calibri,Calibri_MSFontService,sans-serif" font-weight="400" font-size="24" transform="translate(29.5069 348)">M1W<tspan x="0" y="29">box</tspan></text><rect x="794.5" y="148.5" width="93" height="166" stroke="#000000" stroke-miterlimit="8" fill="#F2F2F2"/><text font-family="Calibri,Calibri_MSFontService,sans-serif" font-weight="400" font-size="24" transform="translate(803.834 224)">W1W<tspan x="0" y="29">box</tspan></text><path d="M33.5001 217C33.5001 207.335 51.6325 199.5 74.0001 199.5 96.3676 199.5 114.5 207.335 114.5 217 114.5 226.665 96.3676 234.5 74.0001 234.5 51.6325 234.5 33.5001 226.665 33.5001 217Z" stroke="#A5A5A5" stroke-miterlimit="8" fill="url(#fill4)" fill-rule="evenodd"/><text font-family="Calibri,Calibri_MSFontService,sans-serif" font-weight="400" font-size="16" transform="translate(57.9559 213)">USB<tspan x="26.3333" y="0">-</tspan><tspan x="4.42" y="19">1W</tspan></text><path d="M112 342 426.595 342" stroke="#FFFF00" stroke-width="2" stroke-miterlimit="8" fill="none" fill-rule="evenodd"/><path d="M112 364 321.5 364" stroke="#FFFF00" stroke-width="2" stroke-miterlimit="8" fill="none" fill-rule="evenodd"/><path d="M0 0 35.5276 0.000104987" stroke="#C55A11" stroke-width="2" stroke-miterlimit="8" fill="none" fill-rule="evenodd" transform="matrix(1 0 0 -1 112 387)"/><path d="M112 405 123.391 405 123.391 407 112 407ZM122.058 402 130.058 406 122.058 410Z" fill="#C55A11"/><path d="M114 279.952 114 281.036 113 280.036 137.407 280.036 136.407 281.036 136.407 217 137.407 218 120.074 218 120.074 216 138.407 216 138.407 282.036 112 282.036 112 279.952ZM121.407 221 113.407 217 121.407 213Z"/><path d="M73.0009 198.83 73.0002 169.667 75.0002 169.667 75.0009 198.83ZM70.0002 171 74 163 78.0002 171Z"/><path d="M0 0 3.68733 0 3.68733 123.284 636.89 123.284" stroke="#92D050" stroke-width="2" stroke-miterlimit="8" fill="none" fill-rule="evenodd" transform="matrix(1 0 0 -1 249 219.284)"/><path d="M0 0 68.055 0 68.055 77.6557 136.11 77.6557" stroke="#92D050" stroke-width="2" stroke-miterlimit="8" fill="none" fill-rule="evenodd" transform="matrix(1 0 0 -1 113 297.656)"/><path d="M0-2 87.4843-2 87.4843 43.01 140.611 43.01 140.611 43.6766 86.8177 43.6766 86.8177-1.33333 0-1.33333ZM0-0.666667 86.151-0.666667 86.151 44.3433 140.611 44.3433 140.611 45.6766 84.8177 45.6766 84.8177 0.666667 0 0.666667ZM0 1.33333 84.151 1.33333 84.151 46.3433 140.611 46.3433 140.611 47.01 83.4843 47.01 83.4843 2 0 2Z" fill="#FFC000" transform="matrix(1 0 0 -1 112 323.01)"/><path d="M491.5 268.5 630.551 268.5 630.551 290.25 691 290.25 691 283 705.5 297.5 691 312 691 304.75 630.551 304.75 630.551 326.5 491.5 326.5Z" stroke="#ED7D31" stroke-miterlimit="8" fill="url(#fill5)" fill-rule="evenodd"/><text font-family="Calibri,Calibri_MSFontService,sans-serif" font-weight="400" font-size="24" transform="translate(513.779 305)">Actuators</text><path d="M812.5 470.5 951.551 470.5 951.551 492.625 1011.75 492.625 1011.75 485.25 1026.5 500 1011.75 514.75 1011.75 507.375 951.551 507.375 951.551 529.5 812.5 529.5Z" stroke="#ED7D31" stroke-miterlimit="8" fill="url(#fill6)" fill-rule="evenodd"/><text font-family="Calibri,Calibri_MSFontService,sans-serif" font-weight="400" font-size="24" transform="translate(834.492 507)">Actuators</text><rect x="1187.88" y="101.875" width="56.25" height="115.25" fill="#4472C4"/><path d="M1178.5 92.5001 1253.5 92.5001 1244.12 101.875 1187.88 101.875Z" fill="#698ED0" fill-rule="evenodd"/><path d="M1178.5 226.5 1187.88 217.125 1244.12 217.125 1253.5 226.5Z" fill="#375C9E" fill-rule="evenodd"/><path d="M1178.5 92.5001 1187.88 101.875 1187.88 217.125 1178.5 226.5Z" fill="#8FAADC" fill-rule="evenodd"/><path d="M1253.5 92.5001 1253.5 226.5 1244.12 217.125 1244.12 101.875Z" fill="#294476" fill-rule="evenodd"/><path d="M1178.5 92.5001 1253.5 92.5001 1253.5 226.5 1178.5 226.5ZM1187.88 101.875 1244.12 101.875 1244.12 217.125 1187.88 217.125ZM1178.5 92.5001 1187.88 101.875M1178.5 226.5 1187.88 217.125M1253.5 92.5001 1244.12 101.875M1253.5 226.5 1244.12 217.125" stroke="#2F528F" stroke-miterlimit="8" fill="none" fill-rule="evenodd"/><text fill="#FFFFFF" font-family="Calibri,Calibri_MSFontService,sans-serif" font-weight="400" font-size="11" transform="translate(1199.06 156)">Zonnen<tspan x="-1.16663" y="13">panelen</tspan></text><path d="M520 223.489 520.891 262.182 519.891 262.205 519 223.512ZM524.359 260.768 520.544 268.858 516.361 260.952Z" fill="#4472C4"/><path d="M530 223.489 530.891 262.182 529.891 262.205 529 223.512ZM534.359 260.768 530.544 268.858 526.361 260.952Z" fill="#4472C4"/><path d="M539 223.489 539.891 262.182 538.891 262.205 538 223.512ZM543.359 260.768 539.544 268.858 535.361 260.952Z" fill="#4472C4"/><path d="M548 223.489 548.891 262.182 547.891 262.205 547 223.512ZM552.359 260.768 548.544 268.858 544.361 260.952Z" fill="#4472C4"/><path d="M558 223.489 558.891 262.182 557.891 262.205 557 223.512ZM562.359 260.768 558.544 268.858 554.361 260.952Z" fill="#4472C4"/><path d="M838 536.167 838 574.858 837 574.858 837 536.167ZM833.5 537.5 837.5 529.5 841.5 537.5Z" fill="#4472C4"/><path d="M847 536.167 847 574.858 846 574.858 846 536.167ZM842.5 537.5 846.5 529.5 850.5 537.5Z" fill="#4472C4"/><path d="M856 536.167 856 574.858 855 574.858 855 536.167ZM851.5 537.5 855.5 529.5 859.5 537.5Z" fill="#4472C4"/><path d="M866 536.167 866 574.858 865 574.858 865 536.167ZM861.5 537.5 865.5 529.5 869.5 537.5Z" fill="#4472C4"/><path d="M875 536.167 875 574.858 874 574.858 874 536.167ZM870.5 537.5 874.5 529.5 878.5 537.5Z" fill="#4472C4"/><text font-family="Calibri,Calibri_MSFontService,sans-serif" font-style="italic" font-weight="400" font-size="24" transform="translate(192.548 539)">Woonkamer<tspan x="-173.734" y="-3">Werkkamer</tspan></text><path d="M322.534 364 322.534 556.228 266 556.228 267 555.228 267 598.52 265 598.52 265 554.228 321.534 554.228 320.534 555.228 320.534 364ZM272.667 598.52 266 605.187 259.333 598.52 266 591.853Z" fill="#FFFF00"/><path d="M147.617 387 147.617 553.125 100 553.125 101 552.125 101 598.731 99 598.731 99 551.125 146.617 551.125 145.617 552.125 145.617 387ZM106.667 598.731 100 605.397 93.3333 598.731 100 592.064Z" fill="#C55A11"/><path d="M427.167 344 427.167 544.072 408 544.072 409 543.072 409 584.766 407 584.766 407 542.072 426.167 542.072 425.167 543.072 425.167 344ZM414.667 584.766 408 591.433 401.333 584.766 408 578.099Z" fill="#FFFF00"/><path d="M0-1 44.2254-1 44.2254 18.1672 43.2254 17.1672 86.4508 17.1672 86.4508 19.1672 42.2254 19.1672 42.2254 0 43.2254 1 0 1ZM86.4508 11.5006 93.1175 18.1672 86.4508 24.8339 79.7841 18.1672Z" fill="#FFFF00" transform="matrix(-4.37114e-08 -1 -1 4.37114e-08 426.167 346.451)"/><path d="M0-1 80.4454-1 80.3836 42.143 78.3836 42.1401 78.444-0.00143171 79.444 1 0 1ZM86.05 42.2019 79.3233 48.8079 72.7172 42.0812 79.444 35.4751Z" fill="#FFFF00" transform="matrix(1 0 0 -1 427 388.142)"/><path d="M0-1 98.1765-1 97.9941 62.6281 95.9941 62.6223 96.1736-0.00286585 97.1736 1 0 1ZM103.658 62.8047 96.8146 69.2894 90.3299 62.4457 97.1736 55.9609Z" fill="#FFFF00" transform="matrix(1 0 0 -1 426 408.625)"/><path d="M0-1 115.944-1 115.127 80.9246 113.127 80.9047 113.934-0.00997178 114.934 1 0 1ZM120.744 81.7215 113.32 87.5323 107.509 80.1077 114.934 74.297Z" fill="#FFFF00" transform="matrix(1 0 0 -1 426 427.915)"/><path d="M0-1 131.824-1 131.763 95.4931 129.763 95.4919 129.823-0.00063052 130.823 1 0 1ZM137.43 95.5527 130.703 102.159 124.097 95.4323 130.823 88.8261Z" fill="#FFFF00" transform="matrix(1 0 0 -1 426 441.492)"/><path d="M0-1 147.346-1 147.119 109.363 145.119 109.359 145.344-0.00205741 146.344 1 0 1ZM152.782 109.586 145.894 116.024 139.456 109.136 146.344 102.698Z" fill="#FFFF00" transform="matrix(1 0 0 -1 426 455.361)"/><path d="M0-1 162.966-1 162.673 130.588 160.673 130.583 160.964-0.0022286 161.964 1 0 1ZM168.333 130.877 161.382 137.246 155.012 130.295 161.964 123.925Z" fill="#FFFF00" transform="matrix(1 0 0 -1 426 477.586)"/><path d="M0-1 180.226-1 179.888 146.719 177.888 146.714 178.224-0.00229217 179.224 1 0 1ZM185.546 147.053 178.551 153.374 172.23 146.38 179.224 140.058Z" fill="#FFFF00" transform="matrix(1 0 0 -1 426 492.716)"/><text font-family="Calibri,Calibri_MSFontService,sans-serif" font-style="italic" font-weight="400" font-size="24" transform="translate(423.643 592)">Garage<tspan x="193.891" y="-183">Retour </tspan><tspan x="193.891" y="-154">leidingen</tspan><tspan x="-54.6266" y="-358">Aanvoer</tspan></text><path d="M0 0 45.3543 0.000104987" stroke="#FFFF00" stroke-width="2" stroke-miterlimit="8" fill="none" fill-rule="evenodd" transform="matrix(1 0 0 -1 426 360)"/><path d="M470 360.169 470 181 484.549 181 484.549 183 471 183 472 182 472 360.169ZM483.216 178 491.216 182 483.216 186Z" fill="#FFFF00"/><path d="M887.5 165.5 910.43 165.5" stroke="#4472C4" stroke-miterlimit="8" fill="none" fill-rule="evenodd"/><path d="M887 179 1178.9 179 1178.9 179.667 887 179.667ZM887 180.333 1178.9 180.333 1178.9 181.667 887 181.667ZM887 182.333 1178.9 182.333 1178.9 183 887 183Z" fill="#FFC000"/><path d="M887 260 947.611 260" stroke="#92D050" stroke-width="2" stroke-miterlimit="8" fill="none" fill-rule="evenodd"/><path d="M886 239 966.372 239" stroke="#92D050" stroke-width="2" stroke-miterlimit="8" fill="none" fill-rule="evenodd"/><path d="M887 279 923.298 279" stroke="#92D050" stroke-width="2" stroke-miterlimit="8" fill="none" fill-rule="evenodd"/><path d="M886 298 902.263 298 902.263 300 886 300ZM900.93 295 908.93 299 900.93 303Z" fill="#BFBFBF"/><path d="M921.874 278 921.874 340.112 852 340.112 852 402.224" stroke="#92D050" stroke-width="2" stroke-miterlimit="8" fill="none" fill-rule="evenodd"/><path d="M0 0 143.341 0.000104987" stroke="#92D050" stroke-width="2" stroke-miterlimit="8" fill="none" fill-rule="evenodd" transform="matrix(-1 -8.74228e-08 -8.74228e-08 1 922.341 403)"/><path d="M0-1 212.839-1 212.839 27.1836 210.839 27.1836 210.839 0 211.839 1 0 1ZM215.839 25.8503 211.839 33.8503 207.839 25.8503Z" fill="#92D050" transform="matrix(-4.37114e-08 1 1 4.37114e-08 779 403)"/><path d="M840 403 840 448.358 838 448.358 838 403ZM845.667 448.358 839 455.025 832.333 448.358 839 441.691Z" fill="#92D050"/><path d="M871 403 871 448.358 869 448.358 869 403ZM876.667 448.358 870 455.025 863.333 448.358 870 441.691Z" fill="#92D050"/><path d="M855 403 855 448.358 853 448.358 853 403ZM860.667 448.358 854 455.025 847.333 448.358 854 441.691Z" fill="#92D050"/><path d="M905 403 905 448.358 903 448.358 903 403ZM910.667 448.358 904 455.025 897.333 448.358 904 441.691Z" fill="#92D050"/><path d="M888 403 888 448.358 886 448.358 886 403ZM893.667 448.358 887 455.025 880.333 448.358 887 441.691Z" fill="#92D050"/><path d="M923 403 923 448.354 921 448.354 921 403ZM928.667 448.354 922 455.021 915.333 448.354 922 441.688Z" fill="#92D050"/><path d="M824 403 824 448.358 822 448.358 822 403ZM829.667 448.358 823 455.025 816.333 448.358 823 441.691Z" fill="#92D050"/><text font-family="Calibri,Calibri_MSFontService,sans-serif" font-style="italic" font-weight="400" font-size="24" transform="translate(939.036 421)">Retour <tspan x="0" y="29">leidingen</tspan></text><path d="M0-1 114.575-1 114.575 133.612 113.575 132.612 372.804 132.612 372.804 134.612 112.575 134.612 112.575 0 113.575 1 0 1ZM372.804 126.945 379.471 133.612 372.804 140.279 366.137 133.612Z" fill="#92D050" transform="matrix(-4.37114e-08 1 1 4.37114e-08 946 260)"/><path d="M0-1 125.503-1 125.503 234.704 124.503 233.704 394.658 233.704 394.658 235.704 123.503 235.704 123.503 0 124.503 1 0 1ZM394.658 228.037 401.325 234.704 394.658 241.37 387.991 234.704Z" fill="#92D050" transform="matrix(-4.37114e-08 1 1 4.37114e-08 966 238)"/><path d="M887 217 986.62 217 986.62 329.809 985.62 328.809 1084.24 328.809 1084.24 330.809 984.62 330.809 984.62 218 985.62 219 887 219ZM1084.24 323.142 1090.91 329.809 1084.24 336.476 1077.57 329.809Z" fill="#92D050"/><text font-family="Calibri,Calibri_MSFontService,sans-serif" font-style="italic" font-weight="400" font-size="24" transform="translate(945.331 672)">Slaapkamer<tspan x="119.893" y="0">1</tspan><tspan x="172.98" y="0">Slaapkamer</tspan><tspan x="292.873" y="0">2</tspan><tspan x="153.369" y="-380">Slaapkamer</tspan><tspan x="273.262" y="-380">3</tspan></text><path d="M887 197 1009.76 197 1009.76 286.421 1008.76 285.421 1084.24 285.421 1084.24 287.421 1007.76 287.421 1007.76 198 1008.76 199 887 199ZM1084.24 279.755 1090.91 286.421 1084.24 293.088 1077.57 286.421Z" fill="#92D050"/><text font-family="Calibri,Calibri_MSFontService,sans-serif" font-style="italic" font-weight="400" font-size="24" transform="translate(1100.16 336)">Overloop</text><path d="M886 96C905.33 96 921 96.0002 921 96.0004L921 165C921 165 905.33 165 886 165" stroke="#92D050" stroke-width="2" stroke-miterlimit="8" fill="none" fill-rule="evenodd"/><path d="M112 426 123.391 426 123.391 428 112 428ZM122.058 423 130.058 427 122.058 431Z" fill="#C55A11"/><path d="M229.694 269.793C228.252 263.041 235.681 256.823 246.289 255.904 250.587 255.532 254.957 256.088 258.7 257.484 262.666 252.726 271.934 250.917 279.4 253.445 280.705 253.887 281.904 254.447 282.957 255.108 286.046 251.163 293.569 249.561 299.762 251.528 301.475 252.073 302.97 252.861 304.132 253.831 309.11 250.1 317.908 249.64 323.781 252.802 326.25 254.131 327.913 255.964 328.487 257.986 336.644 259.403 341.457 264.77 339.235 269.973 339.049 270.411 338.814 270.839 338.534 271.256 345.076 276.678 343.475 284.449 334.957 288.614 332.306 289.91 329.174 290.749 325.864 291.05 325.791 296.884 318.297 301.574 309.127 301.528 306.063 301.512 303.065 300.957 300.466 299.925 297.365 306.465 286.545 310.161 276.301 308.181 272.008 307.351 268.298 305.596 265.805 303.216 255.316 307.243 241.702 305.077 235.397 298.377 235.317 298.292 235.239 298.207 235.162 298.122 228.298 298.633 222.08 295.515 221.274 291.157 220.845 288.834 222.049 286.509 224.567 284.801 218.623 282.573 216.626 277.684 220.107 273.88 222.115 271.685 225.637 270.235 229.59 269.974Z" stroke="#FFC000" stroke-miterlimit="8" fill="url(#fill7)" fill-rule="evenodd"/><path d="M231.971 285.645C229.433 285.772 226.896 285.398 224.7 284.575M238.386 297.355C237.366 297.614 236.296 297.786 235.205 297.867M265.798 302.982C265.031 302.249 264.388 301.466 263.881 300.646M301.244 297.156C301.131 298.026 300.875 298.885 300.479 299.72M316.463 281.318C322.216 283.101 325.847 286.828 325.796 290.898M338.476 271.114C337.544 272.5 336.122 273.73 334.32 274.707M328.504 257.785C328.663 258.345 328.736 258.913 328.724 259.482M301.965 255.806C302.506 255.023 303.223 254.294 304.094 253.642M282.053 256.837C282.274 256.19 282.62 255.563 283.084 254.971M258.685 257.471C260.039 257.976 261.292 258.584 262.416 259.281M230.346 271.698C230.05 271.075 229.833 270.438 229.695 269.794" stroke="#FFC000" stroke-miterlimit="8" fill="none" fill-rule="evenodd"/><text font-family="Calibri,Calibri_MSFontService,sans-serif" font-weight="400" font-size="21" transform="translate(245.748 284)">Router</text><path d="M45.5001 103.5C45.5001 96.8726 58.2599 91.5001 74.0001 91.5001 89.7402 91.5001 102.5 96.8726 102.5 103.5L102.5 151.5C102.5 158.127 89.7402 163.5 74.0001 163.5 58.2599 163.5 45.5001 158.127 45.5001 151.5Z" fill="url(#fill8)" fill-rule="evenodd"/><path d="M102.5 103.5C102.5 110.127 89.7402 115.5 74.0001 115.5 58.2599 115.5 45.5001 110.127 45.5001 103.5" stroke="#A9D18E" stroke-miterlimit="8" fill="none" fill-rule="evenodd"/><path d="M45.5001 103.5C45.5001 96.8726 58.2599 91.5001 74.0001 91.5001 89.7402 91.5001 102.5 96.8726 102.5 103.5L102.5 151.5C102.5 158.127 89.7402 163.5 74.0001 163.5 58.2599 163.5 45.5001 158.127 45.5001 151.5Z" stroke="#A9D18E" stroke-miterlimit="8" fill="none" fill-rule="evenodd"/><text font-family="Calibri,Calibri_MSFontService,sans-serif" font-weight="400" font-size="24" transform="translate(57.5952 141)">Rpi</text><g clip-path="url(#clip9)"><g clip-path="url(#clip10)"><g clip-path="url(#clip11)"><path d="M17.5 9.11458C12.8698 9.11458 8.67708 11.0104 5.65104 14.0365L7.72917 16.1146C10.2083 13.599 13.6719 12.0312 17.5 12.0312 21.3281 12.0312 24.7917 13.599 27.3073 16.0781L29.3854 14C26.2865 11.0104 22.1302 9.11458 17.5 9.11458Z" transform="matrix(1 0 -0 1.02857 56 86)"/><path d="M8.75 17.1354 10.8281 19.2135C12.4688 17.4635 14.875 16.4062 17.5 16.4062 20.125 16.4062 22.4948 17.4635 24.2083 19.1771L26.25 17.1354C23.9896 14.875 20.8906 13.4896 17.5 13.4896 14.1094 13.4896 10.974 14.875 8.75 17.1354Z" transform="matrix(1 0 -0 1.02857 56 86)"/><path d="M11.849 20.2344 13.9271 22.3125C14.8385 21.401 16.1146 20.8177 17.5365 20.8177 18.9583 20.8177 20.2344 21.401 21.1458 22.3125L23.224 20.2344C21.7656 18.776 19.7604 17.8646 17.5729 17.8646 15.3854 17.8646 13.2708 18.776 11.849 20.2344Z" transform="matrix(1 0 -0 1.02857 56 86)"/><path d="M14.9115 23.2969 17.5 25.8854 20.0885 23.2969C19.3958 22.6406 18.5208 22.2396 17.5 22.2396 16.4792 22.2396 15.5677 22.6406 14.9115 23.2969Z" transform="matrix(1 0 -0 1.02857 56 86)"/></g></g></g><g clip-path="url(#clip12)"><g clip-path="url(#clip13)"><g clip-path="url(#clip14)"><path d="M181 637.542C174.121 637.542 167.892 640.358 163.396 644.854L166.483 647.942C170.167 644.204 175.312 641.875 181 641.875 186.688 641.875 191.833 644.204 195.571 647.888L198.658 644.8C194.054 640.358 187.879 637.542 181 637.542Z"/><path d="M168 649.458 171.087 652.546C173.525 649.946 177.1 648.375 181 648.375 184.9 648.375 188.421 649.946 190.967 652.492L194 649.458C190.642 646.1 186.038 644.042 181 644.042 175.962 644.042 171.304 646.1 168 649.458Z"/><path d="M172.604 654.062 175.692 657.15C177.046 655.796 178.942 654.929 181.054 654.929 183.167 654.929 185.062 655.796 186.417 657.15L189.504 654.062C187.337 651.896 184.358 650.542 181.108 650.542 177.858 650.542 174.717 651.896 172.604 654.062Z"/><path d="M177.154 658.612 181 662.458 184.846 658.612C183.817 657.638 182.517 657.042 181 657.042 179.483 657.042 178.129 657.638 177.154 658.612Z"/></g></g></g><text font-family="Calibri,Calibri_MSFontService,sans-serif" font-weight="400" font-size="16" transform="translate(100.747 289)">1<tspan x="0" y="20">2</tspan><tspan x="0" y="40">3</tspan><tspan x="0" y="60">4</tspan><tspan x="0" y="80">5</tspan><tspan x="0" y="100">6</tspan><tspan x="0" y="120">7</tspan><tspan x="0" y="140">8</tspan><tspan x="774.434" y="-124">1</tspan><tspan x="774.434" y="-104">2</tspan><tspan x="774.434" y="-84">3</tspan><tspan x="774.434" y="-64">4</tspan><tspan x="774.434" y="-44">5</tspan><tspan x="774.434" y="-24">6</tspan><tspan x="774.434" y="-4">7</tspan><tspan x="774.434" y="16">8</tspan></text></g></svg>